<?xml version="1.0" ?><!DOCTYPE svg  PUBLIC '-//W3C//DTD SVG 1.1//EN'  'http://www.w3.org/Graphics/SVG/1.1/DTD/svg11.dtd'><svg enable-background="new 0 0 512 512" height="512px" id="Calque_1" version="1.1" viewBox="0 0 512 512" width="512px" xml:space="preserve" xmlns="http://www.w3.org/2000/svg" xmlns:xlink="http://www.w3.org/1999/xlink"><g><g><g id="XMLID_1_"><g><path d="M207.06,175.89c17.22,0,31.17,13.96,31.17,31.17c0,17.22-13.95,31.17-31.17,31.17      c-17.21,0-31.17-13.95-31.17-31.17C175.89,189.85,189.85,175.89,207.06,175.89z" fill="#ECEFF0"/><path d="M304.94,273.77c17.21,0,31.17,13.95,31.17,31.17c0,17.21-13.96,31.17-31.17,31.17      c-17.22,0-31.17-13.96-31.17-31.17C273.77,287.72,287.72,273.77,304.94,273.77z" fill="#ECEFF0"/><path d="M442.04,218.98L469.57,256l-27.53,37.02l11.32,44.73l-39.65,23.61l-6.7,45.66l-45.65,6.69l-23.61,39.65      l-44.73-11.32L256,469.57l-37.02-27.53l-44.73,11.32l-23.61-39.65l-45.65-6.7l-6.7-45.65l-39.65-23.61l11.32-44.73L42.44,256      l27.52-37.02l-11.32-44.73l39.65-23.61l6.7-45.65l45.65-6.7l23.61-39.65l44.73,11.32L256,42.44l37.02,27.52l44.73-11.32      l23.61,39.65l45.66,6.7l6.69,45.65l39.65,23.61L442.04,218.98z M401.49,256c0-80.35-65.14-145.49-145.49-145.49      S110.51,175.65,110.51,256S175.65,401.49,256,401.49S401.49,336.35,401.49,256z" fill="#DD6475"/><path d="M469.57,256l-27.53-37.02l11.32-44.73l-39.65-23.61l-6.69-45.65l-45.66-6.7l-23.61-39.65      l-15.44,3.91l21.28,35.74l45.66,6.7l6.69,45.65l39.65,23.61l-11.32,44.73L451.8,256l-27.53,37.02l11.32,44.73l-39.65,23.61      l-6.7,45.66l-45.65,6.69l-21.28,35.74l15.44,3.91l23.61-39.65l45.65-6.69l6.7-45.66l39.65-23.61l-11.32-44.73L469.57,256z" fill="#303C44" opacity="0.2"/><path d="M256,110.51c-80.35,0-145.49,65.14-145.49,145.49S175.65,401.49,256,401.49S401.49,336.35,401.49,256      S336.35,110.51,256,110.51z M207.06,238.23c-17.21,0-31.17-13.95-31.17-31.17c0-17.21,13.96-31.17,31.17-31.17      c17.22,0,31.17,13.96,31.17,31.17C238.23,224.28,224.28,238.23,207.06,238.23z M304.94,336.11c-17.22,0-31.17-13.96-31.17-31.17      c0-17.22,13.95-31.17,31.17-31.17c17.21,0,31.17,13.95,31.17,31.17C336.11,322.15,322.15,336.11,304.94,336.11z" fill="#FFC035"/></g><g><polygon fill="none" points="469.57,256 442.04,293.02 453.36,337.75 413.71,361.36 407.01,407.02 361.36,413.71 337.75,453.36       293.02,442.04 256,469.57 218.98,442.04 174.25,453.36 150.64,413.71 104.99,407.01 98.29,361.36 58.64,337.75 69.96,293.02       42.44,256 69.96,218.98 58.64,174.25 98.29,150.64 104.99,104.99 150.64,98.29 174.25,58.64 218.98,69.96 256,42.44       293.02,69.96 337.75,58.64 361.36,98.29 407.02,104.99 413.71,150.64 453.36,174.25 442.04,218.98     "/><circle cx="256" cy="256" fill="none" r="145.49"/><g><g><path d="M187.01,328.99c-1.024,0-2.047-0.391-2.829-1.172c-1.562-1.562-1.562-4.095,0-5.656l137.99-137.981        c1.563-1.562,4.096-1.562,5.656,0c1.563,1.562,1.563,4.095,0,5.657l-137.99,137.98        C189.057,328.6,188.033,328.99,187.01,328.99z" fill="#ECEFF0"/></g></g><path d="M207.06,175.89c17.22,0,31.17,13.96,31.17,31.17c0,17.22-13.95,31.17-31.17,31.17      c-17.21,0-31.17-13.95-31.17-31.17C175.89,189.85,189.85,175.89,207.06,175.89z" fill="none"/><path d="M304.94,273.77c17.21,0,31.17,13.95,31.17,31.17c0,17.21-13.96,31.17-31.17,31.17      c-17.22,0-31.17-13.96-31.17-31.17C273.77,287.72,287.72,273.77,304.94,273.77z" fill="none"/></g></g></g><linearGradient gradientUnits="userSpaceOnUse" id="SVGID_1_" x1="256" x2="401.49" y1="256" y2="256"><stop offset="0" style="stop-color:#000000"/><stop offset="1" style="stop-color:#FFFFFF;stop-opacity:0"/></linearGradient><path d="M401.49,256c0,80.35-65.14,145.49-145.49,145.49V110.51   C336.35,110.51,401.49,175.65,401.49,256z" fill="url(#SVGID_1_)" opacity="0.1"/></g></svg>